<?xml version="1.0" encoding="iso-8859-1"?>
<!-- Generator: Adobe Illustrator 19.0.0, SVG Export Plug-In . SVG Version: 6.00 Build 0)  -->
<svg version="1.1" id="Capa_1" xmlns="http://www.w3.org/2000/svg" xmlns:xlink="http://www.w3.org/1999/xlink" x="0px" y="0px"
	 viewBox="0 0 480 480" style="enable-background:new 0 0 480 480;" xml:space="preserve">
<g>
	<g>
		<rect x="32" y="128" width="16" height="192"/>
	</g>
</g>
<g>
	<g>
		<rect x="80" y="128" width="32" height="192"/>
	</g>
</g>
<g>
	<g>
		<rect x="128" y="128" width="16" height="192"/>
	</g>
</g>
<g>
	<g>
		<rect x="176" y="128" width="32" height="192"/>
	</g>
</g>
<g>
	<g>
		<rect x="224" y="128" width="32" height="192"/>
	</g>
</g>
<g>
	<g>
		<rect x="432" y="128" width="16" height="192"/>
	</g>
</g>
<g>
	<g>
		<rect x="368" y="128" width="32" height="192"/>
	</g>
</g>
<g>
	<g>
		<rect x="336" y="128" width="16" height="192"/>
	</g>
</g>
<g>
	<g>
		<rect x="288" y="128" width="16" height="192"/>
	</g>
</g>
<g>
	<g>
		<rect x="32" y="336" width="16" height="16"/>
	</g>
</g>
<g>
	<g>
		<rect x="96" y="336" width="16" height="16"/>
	</g>
</g>
<g>
	<g>
		<rect x="128" y="336" width="16" height="16"/>
	</g>
</g>
<g>
	<g>
		<rect x="160" y="336" width="16" height="16"/>
	</g>
</g>
<g>
	<g>
		<rect x="192" y="336" width="16" height="16"/>
	</g>
</g>
<g>
	<g>
		<rect x="64" y="336" width="16" height="16"/>
	</g>
</g>
<g>
	<g>
		<rect x="224" y="336" width="16" height="16"/>
	</g>
</g>
<g>
	<g>
		<rect x="256" y="336" width="16" height="16"/>
	</g>
</g>
<g>
	<g>
		<rect x="288" y="336" width="16" height="16"/>
	</g>
</g>
<g>
	<g>
		<rect x="320" y="336" width="16" height="16"/>
	</g>
</g>
<g>
	<g>
		<rect x="352" y="336" width="16" height="16"/>
	</g>
</g>
<g>
	<g>
		<rect x="384" y="336" width="16" height="16"/>
	</g>
</g>
<g>
	<g>
		<rect x="416" y="336" width="16" height="16"/>
	</g>
</g>
<g>
	<g>
		<polygon points="0,48 0,112 16,112 16,64 64,64 64,48 		"/>
	</g>
</g>
<g>
	<g>
		<polygon points="416,48 416,64 464,64 464,112 480,112 480,48 		"/>
	</g>
</g>
<g>
	<g>
		<polygon points="464,368 464,416 416,416 416,432 480,432 480,368 		"/>
	</g>
</g>
<g>
	<g>
		<polygon points="16,416 16,368 0,368 0,432 64,432 64,416 		"/>
	</g>
</g>
<g>
	<g>
		<polygon points="48,384 48,368 32,368 32,400 64,400 64,384 		"/>
	</g>
</g>
<g>
	<g>
		<polygon points="32,80 32,112 48,112 48,96 64,96 64,80 		"/>
	</g>
</g>
<g>
	<g>
		<polygon points="416,80 416,96 432,96 432,112 448,112 448,80 		"/>
	</g>
</g>
<g>
	<g>
		<polygon points="432,368 432,384 416,384 416,400 448,400 448,368 		"/>
	</g>
</g>
<g>
	<g>
		<rect x="80" y="80" width="320" height="16"/>
	</g>
</g>
<g>
	<g>
		<rect x="80" y="384" width="320" height="16"/>
	</g>
</g>
<g>
</g>
<g>
</g>
<g>
</g>
<g>
</g>
<g>
</g>
<g>
</g>
<g>
</g>
<g>
</g>
<g>
</g>
<g>
</g>
<g>
</g>
<g>
</g>
<g>
</g>
<g>
</g>
<g>
</g>
</svg>
